<?xml version="1.0" encoding="utf-8"?>
<!-- Generator: Adobe Illustrator 25.2.1, SVG Export Plug-In . SVG Version: 6.00 Build 0)  -->
<svg version="1.1" id="Layer_1" xmlns="http://www.w3.org/2000/svg" xmlns:xlink="http://www.w3.org/1999/xlink" x="0px" y="0px"
	 viewBox="0 0 1490.8 248.6" style="enable-background:new 0 0 1490.8 248.6;" xml:space="preserve">
<style type="text/css">
	.st0{fill:none;}
</style>
<g transform="translate(0.000000,233.000000) scale(0.100000,-0.100000)">
	<path d="M12919.7,2174.2c-8.6-10.7-40.6-66.3-71.7-124.1c-321.9-611.7-814.9-1123-1417.1-1473.8c-93-53.5-129.4-68.4-178.6-74.9
		c-80.2-9.6-138-39.6-158.3-82.4c-23.5-48.1-53.5-54.5-79.1-19.3c-52.4,72.7-176.5,95.2-336.9,62c-89.8-19.3-99.5-19.3-93-3.2
		c19.3,48.1,18.2,73.8-4.3,96.3c-41.7,41.7-182.9,23.5-311.2-41.7c-35.3-17.1-70.6-32.1-80.2-32.1c-8.6,0-65.2-50.3-125.1-112.3
		c-58.8-62-110.2-111.2-112.3-109.1s25.7,67.4,61,145.5s64.2,151.9,64.2,164.7c0,32.1-28.9,71.7-51.3,71.7
		c-10.7,0-306.9-115.5-659.9-256.7c-351.9-141.2-641.7-254.5-644.9-252.4c-2.1,2.1,46,78.1,105.9,169
		c95.2,141.2,131.5,185,272.7,324.1c176.5,175.4,290.9,313.4,419.2,505.9c81.3,124.1,216,373.3,257.7,480.2l21.4,54.5l-21.4,27.8
		c-16,20.3-32.1,27.8-59.9,27.8c-92,0-163.6-66.3-290.9-266.3c-47.1-73.8-197.9-302.7-334.7-509.1
		c-238.5-358.3-252.4-376.5-329.4-436.4c-128.3-99.5-280.2-196.8-423.5-271.6c-72.7-37.4-138-78.1-144.4-89.8
		c-15-28.9,9.6-75.9,47.1-88.8c33.2-11.8,111.2,21.4,277,118.7c51.3,29.9,94.1,53.5,94.1,50.3c0-3.2-33.2-55.6-74.9-116.6
		c-40.6-61-74.9-123-74.9-136.9c0-27.8,35.3-71.7,58.8-71.7c8.6,0,314.4,120.9,680.2,267.4c365.8,147.6,667.4,265.2,669.5,263.1
		c2.1-1.1-29.9-77-71.7-167.9s-77-178.6-77-195.7c-1.1-33.2,33.2-70.6,64.2-70.6c23.5,0,123,57.8,209.6,120.9
		c39.6,29.9,83.4,55.6,96.3,56.7c13.9,1.1,124.1,26.7,246,56.7c123,29.9,226.7,54.5,232.1,54.5s9.6-9.6,9.6-20.3
		c0-11.8,8.6-28.9,18.2-39.6c16-16,37.4-17.1,195.7-11.8c103.7,3.2,229.9,15,308,28.9l130.5,22.5l35.3-36.4
		c32.1-34.2,42.8-37.4,157.2-55.6c67.4-10.7,182.9-26.7,256.7-36.4l133.7-18.2l5.3-58.8c6.4-71.7,32.1-113.4,83.4-134.8
		c75.9-31,174.3,5.3,264.2,99.5l54.5,56.7l192.5-9.6c411.8-21.4,729.4-8.6,855.6,33.2c75.9,24.6,142.2,77,181.8,143.3l26.7,46
		c0,0-33.4,51.7,731.3,26c557.2-21.8,755.6-58.1-924.8,136.6c-137.2,15.9-372.2,12.8-520.8,17.1l-269.5,7.5l58.8,117.6
		c114.4,225.7,207.5,474.9,298.4,793.6c66.3,233.1,176.5,684.5,176.5,726.2c0,28.9-43.8,70.6-74.9,70.6
		C12944.3,2192.4,12928.2,2183.8,12919.7,2174.2z M12735.7,1479c-95.2-343.3-215-657.7-334.7-877l-59.9-110.2h-145.5
		c-80.2,0-250.3,3.2-377.5,7.5l-232.1,6.4l125.1,83.4c370,246,774.3,641.7,1011.7,990.3c28.9,42.8,54.5,75.9,56.7,74.9
		C12780.7,1652.3,12761.4,1573.1,12735.7,1479z M11504.8,347.5c-61-20.3-133.7-20.3-133.7,0c0,12.8,16,16,88.8,15
		C11547.5,361.4,11547.5,361.4,11504.8,347.5z M13258.7,257.7c17.1-7.5,10.7-11.8-36.4-26.7c-71.7-21.4-542.2-33.2-760.4-20.3
		l-144.4,9.6l165.8,8.6c90.9,4.3,257.7,15,369,22.5C13094,267.3,13229.8,269.4,13258.7,257.7z M12022.4,97.3
		c11.8-7.5,6.4-13.9-20.3-27.8c-37.4-19.3-58.8-10.7-47.1,19.3C11962.5,107.9,11997.8,112.2,12022.4,97.3z"/>
	<path d="M2184.6,1744.1c-67.5-24.7-101-50-226.4-167.5c-115.2-107.7-162.8-139.8-436-297.4c-310.6-177.9-534.7-284.4-730-345.6
		c-81.5-25.4-114.6-30.7-141.5-25.2c-19.9,4.4-43.9,7.9-54.9,7.1c-28,0.6-56.6-29.9-57.2-60.9c-1.1-56,64.2-89.3,155.5-78.1
		c124.3,14.5,427.8,138.5,711.9,289.9c70.8,38.6,131.4,69.4,134.4,69.3c13-0.3-216.1-252.8-317-348.8
		C981.8,556.8,599.3,283.3,268.7,104.8C202,69.2,139.2,33.4,130.1,25.6c-22.4-18.6-25.5-74.5-4.8-91.9
		c18.7-16.4,266.7-16.3,1100.2-1.8c438.2,7.3,557.3,11.9,632.6,26.5c106.4,19.9,194.3,61.2,250.4,116.1l38.8,38.2l39.3-34.8
		c21.6-19.4,55.2-39.1,74.2-42.5c52.8-11,140-1.8,219.5,24.6c58.4,18.8,73.4,20.5,77.2,9.5c8.5-23.2,67.9-55.4,103.9-56.1
		c39-0.8,190.9,45.2,261.6,78.8l48.5,24l23.5-25.5C3030.2,52,3084,41,3182.2,52c106.3,12.9,214.9,45.7,317.9,94.7
		c62.6,29.8,91.8,38.2,130.8,37.4c59-1.2,69.9-7.4,78.2-43.6c10.1-46.2,32-50.6,142.5-28.8c78.3,15.4,132.4,19.4,263.4,16.8l165-2.3
		l73.3-34.5c103-49.1,216.7-65.3,324.2-45.4c83.3,15.4,186.2,56.3,240,96.3c30.4,21.4,42.5,23.2,131.5,21.4
		c96-2.9,98-2.9,111.4-30.2c15.4-30.3,32.2-40.6,72.2-41.4c34-0.7,58.7-16.2,42.5-24.8c-16.2-10.7-14.4-71.7,3.2-90.1
		c16.6-18.3,46.6-19.9,113.9-8.3c31.1,5.4,52.1,3,69.9-6.4c44.6-22.9,92.5-26.8,184.8-13.7c215.7,30.7,340.1,104.3,387.6,229.4
		c14.8,38.7,28.1,54.5,70.6,81.6l53.7,33.9l24-49.5c12.4-28.3,41.7-64.8,63.4-83.3l39.4-32.8l-71.4-71.6
		c-76.5-76.5-87-102.3-53.9-144l17.5-23.4l144.2,10.1C6683.3-77.5,7160.1,4.1,7404.7,84.3c39.3,13.2,101.5,23,155.5,25.9
		c76.1,2.5,93.2,7.2,107.5,24.9c23.6,27.5,24.2,61.5,0.6,83c-16.7,15.3-49.7,18-336.6,22.7c-328,5.5-386,1.7-404.7-32
		c-16.6-30.7-13.3-67.7,9.4-83.2c19.7-14.4,17.7-15.4-28.5-24.4c-156.6-30.9-514.6-73.8-514.3-62.8c0.2,8,59.9,46.8,112.4,71.8
		c53.5,25.9,85.3,65.3,75.9,94.5c-14.9,53.3-65.7,67.3-119.4,33.4c-16.2-10.7-42.4-19.2-57.4-18.9c-48,1-126.3,88.5-125.2,140.5
		c0.3,13,35.9,47.3,99.9,96c262.1,202.8,651.4,616.2,728.5,774.7c28.1,57.5,27.7,136.5-0.6,171c-13.7,16.3-32.5,27.6-48.5,28
		c-35,0.7-226.5-121.5-355.6-226c-227.7-183.5-456.6-480-522.5-674.8c-12.8-37.8-29.5-77.4-37.7-86.3c-8.2-9.8-59.9-45.8-113.6-80.8
		l-99.3-64l-114-0.7c-129-0.4-210.4-17.8-316.4-65.7c-70.6-31.6-75.7-32.5-153.5-25c-79.8,8.6-80.8,8.6-94.2,42.9
		c-7.6,18.2-23.3,37.5-36.2,41.7c-12.9,4.3-87.9,6.7-167.9,5.3l-145.1-2.1l-56.8-41.9c-67-48.7-148.6-78.1-234.7-84.4
		c-78.1-5.5-152.8,12-235,54.7l-64.4,33.3l-175,3.5c-102,2-205.1-1.9-247.2-8.1c-73.3-12.5-73.3-12.5-102.7,14
		c-46.2,39.9-86.1,46.7-309,53.1c-210.9,6.2-276.1-0.5-312.7-31.8c-19.3-16.6-26.5-77.5-9.7-87.8c21.7-13.4,7.5-25.2-30.5-24.4
		c-39,0.8-39,0.8-37.3,37.7s-25.5,73.5-56.5,74.1c-7,0.1-55.4-20.9-107-46.9c-103.1-52-216.9-93.7-226.7-82.5
		c-3.9,3.1,4.3,13.9,18.5,23.6c96.3,64.1,121.2,109.6,82,150.4c-38.2,39.8-81.5,26.6-169-49.7c-96.7-84.1-328.1-150.5-364.2-104.8
		c-5.8,8.1-8.6,19.2-4.5,25.1c12.4,18.8-2.8,59.1-28.5,76.6c-21.7,14.4-27.7,14.6-83.1-4.4c-56.4-19.9-62.4-19.8-106.1-3.9
		c-130.1,47.6-306.1-3.9-394.3-114.2c-19.5-24.6-35.1-54.3-35.3-66.3c-0.5-23-1.5-23-202.6-26c-112-0.8-374.2-5.6-583.3-8.4
		c-208.1-3.9-381.2-5.4-383.1-3.4c-1,2,19.3,15.6,45.6,30.1c134.5,75.3,408.3,264,576,398.7c177.8,141.5,334.9,295.4,506.9,493
		c305.1,354,348.9,397.2,476.7,486.6c64.9,44.7,148.2,109.1,186.9,142.3c58,51.9,68.3,65.7,68.9,93.7c0.5,24-6.2,39.1-21,49.4
		C2257,1765.7,2243,1765,2184.6,1744.1z M6961.3,1226.3c-5.1-6.9-54.4-67.9-110.7-135.8c-102.5-123-482-497.5-492.7-486.3
		c-6.9,7.1,107.4,168.9,184.2,259.4c86,101.3,213.4,219.8,324.1,302.6c52.8,40,97.4,72.1,99.4,72S6965.4,1232.2,6961.3,1226.3z"/>
</g>
<rect y="0" class="st0" width="1490.8" height="248.6"/>
</svg>
